<mxfile host="Electron" modified="2024-01-08T15:27:12.518Z" agent="Mozilla/5.0 (Windows NT 10.0; Win64; x64) AppleWebKit/537.36 (KHTML, like Gecko) draw.io/22.1.16 Chrome/120.0.6099.109 Electron/28.1.0 Safari/537.36" etag="WYctQ0xdmhNfe8n8cNOI" compressed="false" version="22.1.16" type="device">
  <diagram id="jtEWjEJLr_3nwjV8xUw6" name="Seite-1">
    <mxGraphModel dx="1434" dy="836" grid="1" gridSize="10" guides="1" tooltips="1" connect="1" arrows="1" fold="1" page="1" pageScale="1" pageWidth="1169" pageHeight="827" math="0" shadow="0">
      <root>
        <object tooltip="" id="0">
          <ag_global_attributes>
            <ag_global_attribute name="Resources" value="" iconName="hammer" min="0" max="5" />
            <ag_global_attribute name="Knowledge" value="" iconName="lightbulb" min="0" max="5" />
            <ag_global_attribute name="Location" value="" iconName="map_pin_ellipse" min="0" max="1" />
            <ag_global_attribute name="Impact" value="" iconName="flame" min="0" max="5" />
          </ag_global_attributes>
          <ag_attributes />
          <ag_computed_attributes />
          <ag_aggregation_functions>
            <ag_aggregation_function name="default" id="6b1d22791hih8" default="activity_w;link" fn="function (collection) { &#10;    var result = null; &#10;    if (collection.childAttributes.length == 1) { &#10;        result = collection.childAttributes[0].attributes;&#10;        result._marking = collection.childAttributes[0].id;&#10;    } else { &#10;        var candidates = []; &#10;        var worstValue = 0; &#10;        collection.childAttributes.forEach(function(child) { &#10;            var value = parseInt(child.computedAttribute); &#10;            if (value &gt; worstValue) { &#10;                worstValue = value; &#10;                candidates = []; &#10;                candidates.push(child); &#10;            } else if (value == worstValue) { &#10;                candidates.push(child); &#10;            } &#10;        }); &#10;        var tiebreaker = function(candidates, name, max) { &#10;            var min_value = max; &#10;            candidates.forEach(function(node) { &#10;                min_value = Math.min(min_value, node.attributes[name]); &#10;            }); &#10;            result = []; &#10;            candidates.forEach(function(node) { &#10;                if (node.attributes[name] == min_value) { &#10;                    result.push(node); &#10;                } &#10;            }); &#10;            return result; &#10;        }; &#10;        if (candidates.length &gt; 1) { &#10;            candidates = tiebreaker(candidates, &quot;Resources&quot;, collection.globalAttributes[&quot;Resources&quot;].max); &#10;            if (candidates.length &gt; 1) { &#10;                candidates = tiebreaker(candidates, &quot;Knowledge&quot;, collection.globalAttributes[&quot;Knowledge&quot;].max); &#10;            } &#10;        } &#10;        result = candidates[0].attributes;&#10;        result._marking = candidates[0].id;&#10;    } &#10;    return result; &#10;}" />
            <ag_aggregation_function name="AND" id="gf0d4f199018" default="and" fn="function (collection) { &#10;    var result = {}; &#10;    var ids = [];&#10;    collection.childAttributes.forEach(function(child) { &#10;    for (var attribute in child.attributes) { &#10;            if (attribute in result) { &#10;                result[attribute] += parseInt(child.attributes[attribute]); &#10;            } else { &#10;                result[attribute] = parseInt(child.attributes[attribute]); &#10;            } &#10;        }&#10;        ids.push(child.id);&#10;    }); &#10;    for (var attribute in result) { &#10;        if (attribute in collection.globalAttributes) { &#10;            result[attribute] = Math.min(collection.globalAttributes[attribute].max, result[attribute]); &#10;        } &#10;    }&#10;    result._marking = ids.join(&quot;;&quot;);&#10;    return result; &#10;}" />
            <ag_aggregation_function name="Security Control" id="73f575i0ghij5" default="activity_g;activity_y" fn="function (collection) { &#10;    var result = {}; &#10;    for (var attribute in collection.localAttributes) { &#10;        result[attribute] = parseInt(collection.localAttributes[attribute]); &#10;    } &#10;    collection.childAttributes.forEach(function(child) { &#10;        for (var attribute in child.attributes) { &#10;            if (attribute in collection.globalAttributes) { &#10;                if (attribute in result) { &#10;                    result[attribute] += parseInt(child.attributes[attribute]); &#10;                } &#10;            } &#10;        } &#10;    }); &#10;    for (var attribute in result) { &#10;        if (attribute in collection.globalAttributes) { &#10;            result[attribute] = Math.min(collection.globalAttributes[attribute].max, result[attribute]); &#10;        } &#10;    } &#10;    return result; &#10;}" />
            <ag_aggregation_function name="Risk" id="egf49jfgj408" default="consequence" fn="function (collection) {  &#10;    var maxRisk = &quot;L&quot;; &#10;    var matrix = [ &#10;        [&quot;L&quot;, &quot;L&quot;, &quot;L&quot;, &quot;L&quot;, &quot;L&quot;], &#10;        [&quot;L&quot;, &quot;L&quot;, &quot;M&quot;, &quot;M&quot;, &quot;M&quot;], &#10;        [&quot;L&quot;, &quot;M&quot;, &quot;M&quot;, &quot;S&quot;, &quot;S&quot;], &#10;        [&quot;L&quot;, &quot;M&quot;, &quot;S&quot;, &quot;V&quot;, &quot;V&quot;], &#10;        [&quot;L&quot;, &quot;M&quot;, &quot;S&quot;, &quot;V&quot;, &quot;V&quot;], &#10;    ];&#10;    var updatedImpacts = [];&#10;    var ids = [];&#10; &#10;    var compareRisk = function(risk1, risk2) { &#10;        /*&#10;        * Returns:&#10;        *  - Null: if one of the parameters is not a character representing a risk&#10;        *  - Negativ integer: if risk1 &lt; risk2&#10;        *  - Zero: if risks are equal&#10;        *  - Positive integer: if risk1 &gt; risk2&#10;        */&#10;        var values = [&quot;L&quot;, &quot;M&quot;, &quot;S&quot;, &quot;V&quot;]; &#10;        var index_risk1 = values.indexOf(risk1); &#10;        var index_risk2 = values.indexOf(risk2); &#10; &#10;        if (index_risk1 == -1 || index_risk2 == -1) { &#10;            return null; &#10;        } &#10;        return index_risk1 - index_risk2; &#10; &#10;    } &#10;     &#10;    collection.childAttributes.forEach(function(child) {  &#10;        var impact = 1;  &#10;        if (child.edgeWeight !== null) {  &#10;            impact = parseInt(child.edgeWeight);  &#10;        }&#10;        var _impact = parseInt(child.attributes._impact) || 0;&#10;        impact = Math.max(impact - _impact, 1);&#10;        updatedImpacts.push(child.id + ':' + impact);&#10;        var af = parseInt(child.computedAttribute) || parseInt(child.attributes._af);&#10;        risk = matrix[af - 1][impact - 1];&#10;        result = compareRisk(risk, maxRisk);&#10;        if (result &gt; 0) { &#10;            maxRisk = risk;&#10;            ids = [child.id];&#10;        } else if (result == 0){&#10;            ids.push(child.id);&#10;        }&#10;    });  &#10;  &#10;    var result = {'_risk': maxRisk, &quot;_marking&quot;: ids.join(&quot;;&quot;)};&#10;    if (updatedImpacts.length &gt; 0) {&#10;        result._weight = updatedImpacts.join(';');&#10;    }&#10;    return result;&#10;}" />
            <ag_aggregation_function name="Impact" id="397423adceb0f" default="" fn="function(collection) {&#10;    var impact = 0;&#10;    var result = {}&#10;    &#10;    collection.childAttributes.forEach(function(child) {&#10;        if (&quot;Impact&quot; in child.attributes) {&#10;            impact += parseInt(child.attributes[&quot;Impact&quot;]);&#10;        } else if (&quot;Resources&quot; in child.attributes &amp;&amp; &quot;Knowledge&quot; in child.attributes &amp;&amp; &quot;Location&quot; in child.attributes) {&#10;            result._af = child.computedAttribute&#10;            result._marking = child.id;&#10;        }&#10;    });&#10;    result._impact = Math.min(impact, collection.globalAttributes[&quot;Impact&quot;].max);&#10;    &#10;    return result;&#10;}" />
          </ag_aggregation_functions>
          <ag_computed_attributes_functions>
            <ag_computed_attributes_function name="default" id="dbg60ff69g9a" default="activity_w;activity_g;activity_y" fn="function (collection) { &#10;    var colorMatrix = {&#10;        5: {&quot;fillColor&quot;: &quot;#cc0000&quot;, &quot;fontColor&quot;: &quot;#ffffff&quot;},&#10;        4: {&quot;fillColor&quot;: &quot;#ff4000&quot;, &quot;fontColor&quot;: &quot;#ffffff&quot;},&#10;        3: {&quot;fillColor&quot;: &quot;#ffdd00&quot;, &quot;fontColor&quot;: &quot;#000000&quot;},&#10;        2: {&quot;fillColor&quot;: &quot;#d4ff00&quot;, &quot;fontColor&quot;: &quot;#000000&quot;},&#10;        1: {&quot;fillColor&quot;: &quot;#40ff00&quot;, &quot;fontColor&quot;: &quot;#000000&quot;}&#10;    }&#10;    var matrix = [ &#10;        [5, 5, 4, 3, 2], &#10;        [5, 4, 4, 3, 2], &#10;        [5, 4, 4, 3, 2], &#10;        [4, 3, 3, 2, 1], &#10;        [3, 2, 2, 1, 1], &#10;    ];&#10;    var result = {};&#10;    &#10;    if (&quot;Knowledge&quot; in collection.cellAttributes &amp;&amp; &quot;Resources&quot; in collection.cellAttributes) {&#10;        var knowledgeIndex = parseInt(collection.cellAttributes[&quot;Knowledge&quot;]) - 1; &#10;        var resourcesIndex = parseInt(collection.cellAttributes[&quot;Resources&quot;]) - 1;&#10;        &#10;        var value = Math.min(5, &#10;            Math.max(collection.globalAttributes[&quot;Location&quot;].max, &#10;                Math.max( matrix[knowledgeIndex][resourcesIndex] - parseInt(collection.cellAttributes[&quot;Location&quot;])) &#10;            ));&#10;        result = colorMatrix[value] || result;&#10;        result[&quot;value&quot;] = value;&#10;    }&#10;    &#10;    return result;&#10;}" />
            <ag_computed_attributes_function name="Risk" id="6c831697g9i0a" default="" fn="function(collection){&#10;    var riskMatrix = {&#10;        &quot;V&quot;: {&quot;fillColor&quot;: &quot;#cc0000&quot;, &quot;fontColor&quot;: &quot;#ffffff&quot;},&#10;        &quot;S&quot;: {&quot;fillColor&quot;: &quot;#ff4000&quot;, &quot;fontColor&quot;: &quot;#ffffff&quot;},&#10;        &quot;M&quot;: {&quot;fillColor&quot;: &quot;#ffdd00&quot;, &quot;fontColor&quot;: &quot;#000000&quot;},&#10;        &quot;L&quot;: {&quot;fillColor&quot;: &quot;#40ff00&quot;, &quot;fontColor&quot;: &quot;#000000&quot;},&#10;    };&#10;    var result = {};&#10;    &#10;    if (&quot;_risk&quot; in collection.cellAttributes) {&#10;        var risk = collection.cellAttributes[&quot;_risk&quot;];&#10;        result = riskMatrix[risk] || result;&#10;        result[&quot;value&quot;] = risk;&#10;    }&#10;    &#10;    return result; &#10;}" />
          </ag_computed_attributes_functions>
          <mxCell />
        </object>
        <object id="1">
          <ag_attributes />
          <ag_computed_attributes />
          <mxCell parent="0" />
        </object>
        <object label="Attack Target&#10;Passenger Guidance through the Train Station" id="-4xTDCNd8uaIH-OiAP7f-46">
          <ag_attributes />
          <ag_computed_attributes />
          <mxCell style="whiteSpace=wrap;shape=trapezoid;size=0.075;" parent="1" vertex="1">
            <mxGeometry x="980" y="40" width="300" height="60" as="geometry" />
          </mxCell>
        </object>
        <object id="-4xTDCNd8uaIH-OiAP7f-47">
          <ag_attributes />
          <ag_computed_attributes />
          <mxCell style="edgeStyle=none;rounded=0;orthogonalLoop=1;jettySize=auto;strokeWidth=2;verticalAlign=top;spacingRight=20;strokeColor=#000000;" parent="1" source="-4xTDCNd8uaIH-OiAP7f-49" target="-4xTDCNd8uaIH-OiAP7f-77" edge="1">
            <mxGeometry relative="1" as="geometry" />
          </mxCell>
        </object>
        <object id="-4xTDCNd8uaIH-OiAP7f-48">
          <ag_attributes />
          <ag_computed_attributes />
          <mxCell style="edgeStyle=none;rounded=0;orthogonalLoop=1;jettySize=auto;strokeWidth=2;verticalAlign=top;spacingRight=20;strokeColor=#000000;" parent="1" source="-4xTDCNd8uaIH-OiAP7f-49" target="-4xTDCNd8uaIH-OiAP7f-80" edge="1">
            <mxGeometry relative="1" as="geometry" />
          </mxCell>
        </object>
        <object label="Wrong Guidance by Roboter Assistant" Knowledge="" Resources="" Location="" id="-4xTDCNd8uaIH-OiAP7f-49">
          <ag_attributes label="NaN" Knowledge="5" Resources="5" Location="1" _marking="-4xTDCNd8uaIH-OiAP7f-77" />
          <ag_computed_attributes fillColor="#40ff00" fontColor="#000000" value="1" />
          <ag_computed_attributes_function_reference ag_computed_attributes_function_reference="dbg60ff69g9a" />
          <ag_aggregation_function_reference ag_aggregation_function_reference="6b1d22791hih8" />
          <mxCell style="whiteSpace=wrap;shape=attackgraphs.node;verticalAlign=top;spacingRight=20;" parent="1" vertex="1">
            <mxGeometry x="780" y="520" width="140" height="75" as="geometry" />
          </mxCell>
        </object>
        <object id="-4xTDCNd8uaIH-OiAP7f-50">
          <ag_attributes />
          <ag_computed_attributes />
          <mxCell style="edgeStyle=none;rounded=0;orthogonalLoop=1;jettySize=auto;strokeWidth=2;verticalAlign=top;spacingRight=20;strokeColor=#000000;" parent="1" source="-4xTDCNd8uaIH-OiAP7f-52" target="-4xTDCNd8uaIH-OiAP7f-58" edge="1">
            <mxGeometry relative="1" as="geometry" />
          </mxCell>
        </object>
        <object id="-4xTDCNd8uaIH-OiAP7f-51">
          <ag_attributes />
          <ag_computed_attributes />
          <mxCell style="edgeStyle=none;rounded=0;orthogonalLoop=1;jettySize=auto;strokeWidth=2;verticalAlign=top;spacingRight=20;strokeColor=#000000;" parent="1" source="-4xTDCNd8uaIH-OiAP7f-52" target="-4xTDCNd8uaIH-OiAP7f-57" edge="1">
            <mxGeometry relative="1" as="geometry" />
          </mxCell>
        </object>
        <object label="Manipulate Occupancy Detection" Knowledge="" Resources="" Location="" id="-4xTDCNd8uaIH-OiAP7f-52">
          <ag_attributes label="NaN" Knowledge="4" Resources="4" Location="1" _marking="-4xTDCNd8uaIH-OiAP7f-58" />
          <ag_computed_attributes fillColor="#40ff00" fontColor="#000000" value="1" />
          <ag_computed_attributes_function_reference ag_computed_attributes_function_reference="dbg60ff69g9a" />
          <ag_aggregation_function_reference ag_aggregation_function_reference="6b1d22791hih8" />
          <mxCell style="whiteSpace=wrap;shape=attackgraphs.node;verticalAlign=top;spacingRight=20;" parent="1" vertex="1">
            <mxGeometry x="240" y="520" width="150" height="75" as="geometry" />
          </mxCell>
        </object>
        <object id="GgrNti0cYKfVZOgplMKi-19">
          <ag_attributes />
          <ag_computed_attributes />
          <mxCell style="edgeStyle=none;rounded=0;orthogonalLoop=1;jettySize=auto;html=1;strokeWidth=2;startArrow=diamondThin;startFill=1;endArrow=none;endFill=0;strokeColor=#000000;" parent="1" source="-4xTDCNd8uaIH-OiAP7f-53" target="GgrNti0cYKfVZOgplMKi-18" edge="1">
            <mxGeometry relative="1" as="geometry" />
          </mxCell>
        </object>
        <object label="Jamming wireless communications" Knowledge="2" Resources="2" Location="1" id="-4xTDCNd8uaIH-OiAP7f-53">
          <ag_attributes label="NaN" Knowledge="5" Resources="4" Location="1" />
          <ag_computed_attributes fillColor="#40ff00" fontColor="#000000" value="1" />
          <ag_aggregation_function_reference ag_aggregation_function_reference="73f575i0ghij5" />
          <ag_computed_attributes_function_reference ag_computed_attributes_function_reference="dbg60ff69g9a" />
          <mxCell style="fillColor=#fee599;whiteSpace=wrap;shape=attackgraphs.node;verticalAlign=top;spacingRight=20;" parent="1" vertex="1">
            <mxGeometry x="550" y="520" width="150" height="75" as="geometry" />
          </mxCell>
        </object>
        <object id="-4xTDCNd8uaIH-OiAP7f-54">
          <ag_attributes />
          <ag_computed_attributes />
          <mxCell style="edgeStyle=none;rounded=0;orthogonalLoop=1;jettySize=auto;exitX=0;exitY=0.25;exitDx=0;exitDy=0;exitPerimeter=0;strokeWidth=2;verticalAlign=top;spacingRight=20;strokeColor=#000000;" parent="1" source="-4xTDCNd8uaIH-OiAP7f-68" target="-4xTDCNd8uaIH-OiAP7f-66" edge="1">
            <mxGeometry relative="1" as="geometry" />
          </mxCell>
        </object>
        <object id="-4xTDCNd8uaIH-OiAP7f-55">
          <ag_attributes />
          <ag_computed_attributes />
          <mxCell style="edgeStyle=none;rounded=0;orthogonalLoop=1;jettySize=auto;entryX=1;entryY=0.5;entryDx=0;entryDy=0;entryPerimeter=0;strokeWidth=2;verticalAlign=top;spacingRight=20;strokeColor=#000000;" parent="1" source="-4xTDCNd8uaIH-OiAP7f-56" target="-4xTDCNd8uaIH-OiAP7f-68" edge="1">
            <mxGeometry relative="1" as="geometry" />
          </mxCell>
        </object>
        <object label="Create an individual movement profile" Knowledge="" Resources="" Location="" id="-4xTDCNd8uaIH-OiAP7f-56">
          <ag_attributes label="NaN" Knowledge="5" Resources="5" Location="1" _marking="-4xTDCNd8uaIH-OiAP7f-68" />
          <ag_computed_attributes fillColor="#40ff00" fontColor="#000000" value="1" />
          <ag_computed_attributes_function_reference ag_computed_attributes_function_reference="dbg60ff69g9a" />
          <ag_aggregation_function_reference ag_aggregation_function_reference="6b1d22791hih8" />
          <mxCell style="whiteSpace=wrap;shape=attackgraphs.node;verticalAlign=top;spacingRight=20;" parent="1" vertex="1">
            <mxGeometry x="1456" y="290" width="210" height="60" as="geometry" />
          </mxCell>
        </object>
        <object id="GgrNti0cYKfVZOgplMKi-21">
          <ag_attributes />
          <ag_computed_attributes />
          <mxCell style="edgeStyle=none;rounded=0;orthogonalLoop=1;jettySize=auto;html=1;strokeWidth=2;startArrow=diamondThin;startFill=1;endArrow=none;endFill=0;strokeColor=#000000;" parent="1" source="-4xTDCNd8uaIH-OiAP7f-57" target="GgrNti0cYKfVZOgplMKi-20" edge="1">
            <mxGeometry relative="1" as="geometry" />
          </mxCell>
        </object>
        <object id="GgrNti0cYKfVZOgplMKi-23">
          <ag_attributes />
          <ag_computed_attributes />
          <mxCell style="edgeStyle=none;rounded=0;orthogonalLoop=1;jettySize=auto;html=1;strokeWidth=2;startArrow=diamondThin;startFill=1;endArrow=none;endFill=0;strokeColor=#000000;" parent="1" source="-4xTDCNd8uaIH-OiAP7f-57" target="GgrNti0cYKfVZOgplMKi-22" edge="1">
            <mxGeometry relative="1" as="geometry" />
          </mxCell>
        </object>
        <object id="GgrNti0cYKfVZOgplMKi-25">
          <ag_attributes />
          <ag_computed_attributes />
          <mxCell style="edgeStyle=none;rounded=0;orthogonalLoop=1;jettySize=auto;html=1;strokeWidth=2;startArrow=diamondThin;startFill=1;endArrow=none;endFill=0;strokeColor=#000000;" parent="1" source="-4xTDCNd8uaIH-OiAP7f-57" target="GgrNti0cYKfVZOgplMKi-15" edge="1">
            <mxGeometry relative="1" as="geometry" />
          </mxCell>
        </object>
        <object label="Manipulate prediction of machine learning" Knowledge="4" Resources="3" Location="0" id="-4xTDCNd8uaIH-OiAP7f-57">
          <ag_attributes label="NaN" Knowledge="5" Resources="5" Location="1" />
          <ag_computed_attributes fillColor="#40ff00" fontColor="#000000" value="1" />
          <ag_computed_attributes_function_reference ag_computed_attributes_function_reference="dbg60ff69g9a" />
          <ag_aggregation_function_reference ag_aggregation_function_reference="73f575i0ghij5" />
          <mxCell style="fillColor=#fee599;whiteSpace=wrap;shape=attackgraphs.node;verticalAlign=top;spacingRight=20;" parent="1" vertex="1">
            <mxGeometry x="330" y="680" width="150" height="75" as="geometry" />
          </mxCell>
        </object>
        <object id="GgrNti0cYKfVZOgplMKi-6">
          <ag_attributes />
          <ag_computed_attributes />
          <mxCell style="rounded=0;orthogonalLoop=1;jettySize=auto;html=1;strokeWidth=2;startArrow=diamondThin;startFill=1;endArrow=none;endFill=0;strokeColor=#000000;" parent="1" source="-4xTDCNd8uaIH-OiAP7f-58" target="GgrNti0cYKfVZOgplMKi-4" edge="1">
            <mxGeometry relative="1" as="geometry" />
          </mxCell>
        </object>
        <object id="GgrNti0cYKfVZOgplMKi-7">
          <ag_attributes />
          <ag_computed_attributes />
          <mxCell style="edgeStyle=none;rounded=0;orthogonalLoop=1;jettySize=auto;html=1;strokeWidth=2;startArrow=diamondThin;startFill=1;endArrow=none;endFill=0;strokeColor=#000000;" parent="1" source="-4xTDCNd8uaIH-OiAP7f-58" target="GgrNti0cYKfVZOgplMKi-2" edge="1">
            <mxGeometry relative="1" as="geometry" />
          </mxCell>
        </object>
        <object label="Compromise cameras" Knowledge="1" Resources="1" Location="1" id="-4xTDCNd8uaIH-OiAP7f-58">
          <ag_attributes label="NaN" Knowledge="4" Resources="4" Location="1" />
          <ag_computed_attributes fillColor="#40ff00" fontColor="#000000" value="1" />
          <ag_computed_attributes_function_reference ag_computed_attributes_function_reference="dbg60ff69g9a" />
          <ag_aggregation_function_reference ag_aggregation_function_reference="73f575i0ghij5" />
          <mxCell style="whiteSpace=wrap;fillColor=#d7e3bf;shape=attackgraphs.node;verticalAlign=top;spacingRight=20;" parent="1" vertex="1">
            <mxGeometry x="130" y="680" width="150" height="75" as="geometry" />
          </mxCell>
        </object>
        <object id="-4xTDCNd8uaIH-OiAP7f-59">
          <ag_attributes />
          <ag_computed_attributes />
          <mxCell style="rounded=0;orthogonalLoop=1;jettySize=auto;strokeWidth=2;verticalAlign=top;spacingRight=20;strokeColor=#000000;" parent="1" source="-4xTDCNd8uaIH-OiAP7f-61" target="-4xTDCNd8uaIH-OiAP7f-49" edge="1">
            <mxGeometry relative="1" as="geometry" />
          </mxCell>
        </object>
        <object label="" id="-4xTDCNd8uaIH-OiAP7f-60">
          <ag_attributes />
          <ag_computed_attributes />
          <mxCell style="edgeStyle=none;rounded=0;orthogonalLoop=1;jettySize=auto;strokeWidth=2;verticalAlign=top;spacingRight=20;strokeColor=#000000;" parent="1" source="-4xTDCNd8uaIH-OiAP7f-61" target="-4xTDCNd8uaIH-OiAP7f-64" edge="1">
            <mxGeometry relative="1" as="geometry">
              <mxPoint x="1298.181818181818" y="430" as="targetPoint" />
            </mxGeometry>
          </mxCell>
        </object>
        <object label="Misdirect travelers&#10;(not take them to their destination)" Knowledge="" Resources="" Location="" id="-4xTDCNd8uaIH-OiAP7f-61">
          <ag_attributes label="NaN" Knowledge="5" Resources="5" Location="1" _marking="-4xTDCNd8uaIH-OiAP7f-49" />
          <ag_computed_attributes fillColor="#40ff00" fontColor="#000000" value="1" />
          <ag_aggregation_function_reference ag_aggregation_function_reference="6b1d22791hih8" />
          <ag_computed_attributes_function_reference ag_computed_attributes_function_reference="dbg60ff69g9a" />
          <mxCell style="whiteSpace=wrap;shape=attackgraphs.node;verticalAlign=top;spacingRight=20;" parent="1" vertex="1">
            <mxGeometry x="925" y="290" width="150" height="60" as="geometry" />
          </mxCell>
        </object>
        <object id="-4xTDCNd8uaIH-OiAP7f-62">
          <ag_attributes />
          <ag_computed_attributes />
          <mxCell style="edgeStyle=none;rounded=0;orthogonalLoop=1;jettySize=auto;strokeWidth=2;verticalAlign=top;spacingRight=20;strokeColor=#000000;" parent="1" source="-4xTDCNd8uaIH-OiAP7f-64" target="-4xTDCNd8uaIH-OiAP7f-78" edge="1">
            <mxGeometry relative="1" as="geometry" />
          </mxCell>
        </object>
        <object id="-4xTDCNd8uaIH-OiAP7f-63">
          <ag_attributes />
          <ag_computed_attributes />
          <mxCell style="edgeStyle=none;rounded=0;orthogonalLoop=1;jettySize=auto;strokeWidth=2;verticalAlign=top;spacingRight=20;strokeColor=#000000;" parent="1" source="-4xTDCNd8uaIH-OiAP7f-64" target="-4xTDCNd8uaIH-OiAP7f-79" edge="1">
            <mxGeometry relative="1" as="geometry" />
          </mxCell>
        </object>
        <object label="Wrong Recommendation on Automated Personal Assistant" Knowledge="" Resources="" Location="" id="-4xTDCNd8uaIH-OiAP7f-64">
          <ag_attributes label="NaN" Knowledge="5" Resources="5" Location="1" _marking="-4xTDCNd8uaIH-OiAP7f-78" />
          <ag_computed_attributes fillColor="#40ff00" fontColor="#000000" value="1" />
          <ag_computed_attributes_function_reference ag_computed_attributes_function_reference="dbg60ff69g9a" />
          <ag_aggregation_function_reference ag_aggregation_function_reference="6b1d22791hih8" />
          <mxCell style="whiteSpace=wrap;shape=attackgraphs.node;verticalAlign=top;spacingRight=20;" parent="1" vertex="1">
            <mxGeometry x="1075" y="520" width="150" height="75" as="geometry" />
          </mxCell>
        </object>
        <object id="-4xTDCNd8uaIH-OiAP7f-65">
          <ag_attributes />
          <ag_computed_attributes />
          <mxCell style="edgeStyle=none;rounded=0;orthogonalLoop=1;jettySize=auto;strokeWidth=2;verticalAlign=top;spacingRight=20;strokeColor=#000000;" parent="1" source="-4xTDCNd8uaIH-OiAP7f-66" target="-4xTDCNd8uaIH-OiAP7f-72" edge="1">
            <mxGeometry relative="1" as="geometry" />
          </mxCell>
        </object>
        <object label="Eavesdropping Movements of Roboter Assistants" Knowledge="" Resources="" Location="" id="-4xTDCNd8uaIH-OiAP7f-66">
          <ag_attributes label="NaN" Knowledge="4" Resources="3" Location="1" _marking="-4xTDCNd8uaIH-OiAP7f-72" />
          <ag_computed_attributes fillColor="#d4ff00" fontColor="#000000" value="2" />
          <ag_computed_attributes_function_reference ag_computed_attributes_function_reference="dbg60ff69g9a" />
          <ag_aggregation_function_reference ag_aggregation_function_reference="6b1d22791hih8" />
          <mxCell style="whiteSpace=wrap;shape=attackgraphs.node;verticalAlign=top;spacingRight=20;" parent="1" vertex="1">
            <mxGeometry x="1350" y="520" width="150" height="75" as="geometry" />
          </mxCell>
        </object>
        <object id="-4xTDCNd8uaIH-OiAP7f-67">
          <ag_attributes />
          <ag_computed_attributes />
          <mxCell style="edgeStyle=none;rounded=0;orthogonalLoop=1;jettySize=auto;strokeWidth=2;verticalAlign=top;spacingRight=20;strokeColor=#000000;" parent="1" source="-4xTDCNd8uaIH-OiAP7f-68" target="-4xTDCNd8uaIH-OiAP7f-71" edge="1">
            <mxGeometry relative="1" as="geometry" />
          </mxCell>
        </object>
        <object label="" id="-4xTDCNd8uaIH-OiAP7f-68">
          <ag_attributes label="NaN" Knowledge="5" Resources="5" Location="1" _marking="-4xTDCNd8uaIH-OiAP7f-66;-4xTDCNd8uaIH-OiAP7f-71" />
          <ag_computed_attributes />
          <ag_aggregation_function_reference ag_aggregation_function_reference="gf0d4f199018" />
          <mxCell style="shape=or;whiteSpace=wrap;rotation=-90;verticalAlign=top;spacingRight=20;" parent="1" vertex="1">
            <mxGeometry x="1544" y="400" width="30" height="40" as="geometry" />
          </mxCell>
        </object>
        <object id="-4xTDCNd8uaIH-OiAP7f-69">
          <ag_attributes />
          <ag_computed_attributes />
          <mxCell style="edgeStyle=none;rounded=0;orthogonalLoop=1;jettySize=auto;strokeWidth=2;verticalAlign=top;spacingRight=20;strokeColor=#000000;" parent="1" source="-4xTDCNd8uaIH-OiAP7f-71" target="-4xTDCNd8uaIH-OiAP7f-73" edge="1">
            <mxGeometry relative="1" as="geometry" />
          </mxCell>
        </object>
        <object id="-4xTDCNd8uaIH-OiAP7f-70">
          <ag_attributes />
          <ag_computed_attributes />
          <mxCell style="edgeStyle=none;rounded=0;orthogonalLoop=1;jettySize=auto;strokeWidth=2;verticalAlign=top;spacingRight=20;strokeColor=#000000;" parent="1" source="-4xTDCNd8uaIH-OiAP7f-71" target="-4xTDCNd8uaIH-OiAP7f-74" edge="1">
            <mxGeometry relative="1" as="geometry" />
          </mxCell>
        </object>
        <object label="Assign use of the robot assistant to a person" Knowledge="" Resources="" Location="" id="-4xTDCNd8uaIH-OiAP7f-71">
          <ag_attributes label="NaN" Knowledge="4" Resources="4" Location="0" _marking="-4xTDCNd8uaIH-OiAP7f-73" />
          <ag_computed_attributes fillColor="#d4ff00" fontColor="#000000" value="2" />
          <ag_computed_attributes_function_reference ag_computed_attributes_function_reference="dbg60ff69g9a" />
          <ag_aggregation_function_reference ag_aggregation_function_reference="6b1d22791hih8" />
          <mxCell style="whiteSpace=wrap;shape=attackgraphs.node;verticalAlign=top;spacingRight=20;" parent="1" vertex="1">
            <mxGeometry x="1620" y="520" width="150" height="75" as="geometry" />
          </mxCell>
        </object>
        <object id="GgrNti0cYKfVZOgplMKi-10">
          <ag_attributes />
          <ag_computed_attributes />
          <mxCell style="edgeStyle=none;rounded=0;orthogonalLoop=1;jettySize=auto;html=1;strokeWidth=2;startArrow=diamondThin;startFill=1;endArrow=none;endFill=0;strokeColor=#000000;" parent="1" source="-4xTDCNd8uaIH-OiAP7f-72" target="GgrNti0cYKfVZOgplMKi-8" edge="1">
            <mxGeometry relative="1" as="geometry" />
          </mxCell>
        </object>
        <object label="Eavesdrop on communications network" Knowledge="2" Resources="1" Location="1" id="-4xTDCNd8uaIH-OiAP7f-72">
          <ag_attributes label="NaN" Knowledge="4" Resources="3" Location="1" />
          <ag_computed_attributes fillColor="#d4ff00" fontColor="#000000" value="2" />
          <ag_aggregation_function_reference ag_aggregation_function_reference="73f575i0ghij5" />
          <ag_computed_attributes_function_reference ag_computed_attributes_function_reference="dbg60ff69g9a" />
          <mxCell style="whiteSpace=wrap;fillColor=#d7e3bf;shape=attackgraphs.node;verticalAlign=top;spacingRight=20;" parent="1" vertex="1">
            <mxGeometry x="1350" y="680" width="150" height="75" as="geometry" />
          </mxCell>
        </object>
        <object id="GgrNti0cYKfVZOgplMKi-12">
          <ag_attributes />
          <ag_computed_attributes />
          <mxCell style="edgeStyle=none;rounded=0;orthogonalLoop=1;jettySize=auto;html=1;strokeWidth=2;startArrow=diamondThin;startFill=1;endArrow=none;endFill=0;strokeColor=#000000;" parent="1" source="-4xTDCNd8uaIH-OiAP7f-73" target="GgrNti0cYKfVZOgplMKi-2" edge="1">
            <mxGeometry relative="1" as="geometry" />
          </mxCell>
        </object>
        <object label="Evaluate Images of Stationary Cameras" Knowledge="3" Resources="3" Location="0" id="-4xTDCNd8uaIH-OiAP7f-73">
          <ag_attributes label="NaN" Knowledge="4" Resources="4" Location="0" />
          <ag_computed_attributes fillColor="#d4ff00" fontColor="#000000" value="2" />
          <ag_computed_attributes_function_reference ag_computed_attributes_function_reference="dbg60ff69g9a" />
          <ag_aggregation_function_reference ag_aggregation_function_reference="73f575i0ghij5" />
          <mxCell style="whiteSpace=wrap;fillColor=#d7e3bf;shape=attackgraphs.node;verticalAlign=top;spacingRight=20;" parent="1" vertex="1">
            <mxGeometry x="1520" y="680" width="150" height="75" as="geometry" />
          </mxCell>
        </object>
        <object id="GgrNti0cYKfVZOgplMKi-14">
          <ag_attributes />
          <ag_computed_attributes />
          <mxCell style="edgeStyle=none;rounded=0;orthogonalLoop=1;jettySize=auto;html=1;strokeWidth=2;startArrow=diamondThin;startFill=1;endArrow=none;endFill=0;strokeColor=#000000;" parent="1" source="-4xTDCNd8uaIH-OiAP7f-74" target="GgrNti0cYKfVZOgplMKi-20" edge="1">
            <mxGeometry relative="1" as="geometry">
              <mxPoint x="1720" y="890" as="targetPoint" />
            </mxGeometry>
          </mxCell>
        </object>
        <object id="GgrNti0cYKfVZOgplMKi-16">
          <ag_attributes />
          <ag_computed_attributes />
          <mxCell style="edgeStyle=none;rounded=0;orthogonalLoop=1;jettySize=auto;html=1;strokeWidth=2;startArrow=diamondThin;startFill=1;endArrow=none;endFill=0;strokeColor=#000000;" parent="1" source="-4xTDCNd8uaIH-OiAP7f-74" target="GgrNti0cYKfVZOgplMKi-15" edge="1">
            <mxGeometry relative="1" as="geometry" />
          </mxCell>
        </object>
        <object label="Evaluate the robot assistant's sensors (camera, Bluetooth, etc.)" Knowledge="3" Resources="3" Location="1" id="-4xTDCNd8uaIH-OiAP7f-74">
          <ag_attributes label="NaN" Knowledge="5" Resources="5" Location="1" />
          <ag_computed_attributes fillColor="#40ff00" fontColor="#000000" value="1" />
          <ag_computed_attributes_function_reference ag_computed_attributes_function_reference="dbg60ff69g9a" />
          <ag_aggregation_function_reference ag_aggregation_function_reference="73f575i0ghij5" />
          <mxCell style="whiteSpace=wrap;fillColor=#d7e3bf;shape=attackgraphs.node;verticalAlign=top;spacingRight=20;" parent="1" vertex="1">
            <mxGeometry x="1720" y="680" width="190" height="75" as="geometry" />
          </mxCell>
        </object>
        <object id="-4xTDCNd8uaIH-OiAP7f-75">
          <ag_attributes />
          <ag_computed_attributes />
          <mxCell style="edgeStyle=none;rounded=0;orthogonalLoop=1;jettySize=auto;strokeWidth=2;verticalAlign=top;spacingRight=20;strokeColor=#000000;" parent="1" source="-4xTDCNd8uaIH-OiAP7f-76" target="-4xTDCNd8uaIH-OiAP7f-53" edge="1">
            <mxGeometry relative="1" as="geometry" />
          </mxCell>
        </object>
        <object label="Limit availability of traveler routing" Knowledge="" Resources="" Location="" id="-4xTDCNd8uaIH-OiAP7f-76">
          <ag_attributes label="NaN" Knowledge="5" Resources="4" Location="1" _marking="-4xTDCNd8uaIH-OiAP7f-53" />
          <ag_computed_attributes fillColor="#40ff00" fontColor="#000000" value="1" />
          <ag_aggregation_function_reference ag_aggregation_function_reference="6b1d22791hih8" />
          <ag_computed_attributes_function_reference ag_computed_attributes_function_reference="dbg60ff69g9a" />
          <mxCell style="whiteSpace=wrap;shape=attackgraphs.node;verticalAlign=top;spacingRight=20;" parent="1" vertex="1">
            <mxGeometry x="520" y="290" width="210" height="60" as="geometry" />
          </mxCell>
        </object>
        <object id="GgrNti0cYKfVZOgplMKi-33">
          <ag_attributes />
          <ag_computed_attributes />
          <mxCell style="edgeStyle=none;rounded=0;orthogonalLoop=1;jettySize=auto;html=1;strokeWidth=2;startArrow=diamondThin;startFill=1;endArrow=none;endFill=0;strokeColor=#000000;" parent="1" source="-4xTDCNd8uaIH-OiAP7f-77" target="GgrNti0cYKfVZOgplMKi-9" edge="1">
            <mxGeometry relative="1" as="geometry" />
          </mxCell>
        </object>
        <object id="GgrNti0cYKfVZOgplMKi-35">
          <ag_attributes />
          <ag_computed_attributes />
          <mxCell style="edgeStyle=none;rounded=0;orthogonalLoop=1;jettySize=auto;html=1;strokeWidth=2;startArrow=diamondThin;startFill=1;endArrow=none;endFill=0;strokeColor=#000000;" parent="1" source="-4xTDCNd8uaIH-OiAP7f-77" target="GgrNti0cYKfVZOgplMKi-34" edge="1">
            <mxGeometry relative="1" as="geometry" />
          </mxCell>
        </object>
        <object label="Compromise robot assistant" Knowledge="3" Resources="3" Location="0" id="-4xTDCNd8uaIH-OiAP7f-77">
          <ag_attributes label="NaN" Knowledge="5" Resources="5" Location="1" />
          <ag_computed_attributes fillColor="#40ff00" fontColor="#000000" value="1" />
          <ag_computed_attributes_function_reference ag_computed_attributes_function_reference="dbg60ff69g9a" />
          <ag_aggregation_function_reference ag_aggregation_function_reference="73f575i0ghij5" />
          <mxCell style="whiteSpace=wrap;fillColor=#fee599;shape=attackgraphs.node;verticalAlign=top;spacingRight=20;" parent="1" vertex="1">
            <mxGeometry x="820" y="680" width="150" height="75" as="geometry" />
          </mxCell>
        </object>
        <object id="GgrNti0cYKfVZOgplMKi-27">
          <ag_attributes />
          <ag_computed_attributes />
          <mxCell style="edgeStyle=none;rounded=0;orthogonalLoop=1;jettySize=auto;html=1;strokeWidth=2;startArrow=diamondThin;startFill=1;endArrow=none;endFill=0;strokeColor=#000000;" parent="1" source="-4xTDCNd8uaIH-OiAP7f-78" target="GgrNti0cYKfVZOgplMKi-9" edge="1">
            <mxGeometry relative="1" as="geometry" />
          </mxCell>
        </object>
        <object id="GgrNti0cYKfVZOgplMKi-28">
          <ag_attributes />
          <ag_computed_attributes />
          <mxCell style="edgeStyle=none;rounded=0;orthogonalLoop=1;jettySize=auto;html=1;strokeWidth=2;startArrow=diamondThin;startFill=1;endArrow=none;endFill=0;strokeColor=#000000;" parent="1" source="-4xTDCNd8uaIH-OiAP7f-78" target="GgrNti0cYKfVZOgplMKi-8" edge="1">
            <mxGeometry relative="1" as="geometry" />
          </mxCell>
        </object>
        <object label="Compromise communications network" Knowledge="3" Resources="1" Location="1" id="-4xTDCNd8uaIH-OiAP7f-78">
          <ag_attributes label="NaN" Knowledge="5" Resources="5" Location="1" />
          <ag_computed_attributes fillColor="#40ff00" fontColor="#000000" value="1" />
          <ag_computed_attributes_function_reference ag_computed_attributes_function_reference="dbg60ff69g9a" />
          <ag_aggregation_function_reference ag_aggregation_function_reference="73f575i0ghij5" />
          <mxCell style="whiteSpace=wrap;fillColor=#d7e3bf;shape=attackgraphs.node;verticalAlign=top;spacingRight=20;" parent="1" vertex="1">
            <mxGeometry x="990" y="680" width="150" height="75" as="geometry" />
          </mxCell>
        </object>
        <object id="GgrNti0cYKfVZOgplMKi-26">
          <ag_attributes />
          <ag_computed_attributes />
          <mxCell style="edgeStyle=none;rounded=0;orthogonalLoop=1;jettySize=auto;html=1;strokeWidth=2;startArrow=diamondThin;startFill=1;endArrow=none;endFill=0;strokeColor=#000000;" parent="1" source="-4xTDCNd8uaIH-OiAP7f-79" target="GgrNti0cYKfVZOgplMKi-20" edge="1">
            <mxGeometry relative="1" as="geometry" />
          </mxCell>
        </object>
        <object id="GgrNti0cYKfVZOgplMKi-30">
          <ag_attributes />
          <ag_computed_attributes />
          <mxCell style="edgeStyle=none;rounded=0;orthogonalLoop=1;jettySize=auto;html=1;strokeWidth=2;startArrow=diamondThin;startFill=1;endArrow=none;endFill=0;strokeColor=#000000;" parent="1" source="-4xTDCNd8uaIH-OiAP7f-79" target="GgrNti0cYKfVZOgplMKi-29" edge="1">
            <mxGeometry relative="1" as="geometry" />
          </mxCell>
        </object>
        <object label="Compromise Automated Personal Assistant" Knowledge="3" Resources="2" Location="0" id="-4xTDCNd8uaIH-OiAP7f-79">
          <ag_attributes label="NaN" Knowledge="5" Resources="5" Location="0" />
          <ag_computed_attributes fillColor="#40ff00" fontColor="#000000" value="1" />
          <ag_computed_attributes_function_reference ag_computed_attributes_function_reference="dbg60ff69g9a" />
          <ag_aggregation_function_reference ag_aggregation_function_reference="73f575i0ghij5" />
          <mxCell style="whiteSpace=wrap;fillColor=#d7e3bf;shape=attackgraphs.node;verticalAlign=top;spacingRight=20;" parent="1" vertex="1">
            <mxGeometry x="1165" y="680" width="150" height="75" as="geometry" />
          </mxCell>
        </object>
        <object id="GgrNti0cYKfVZOgplMKi-36">
          <ag_attributes />
          <ag_computed_attributes />
          <mxCell style="edgeStyle=none;rounded=0;orthogonalLoop=1;jettySize=auto;html=1;strokeWidth=2;startArrow=diamondThin;startFill=1;endArrow=none;endFill=0;strokeColor=#000000;" parent="1" source="-4xTDCNd8uaIH-OiAP7f-80" target="GgrNti0cYKfVZOgplMKi-4" edge="1">
            <mxGeometry relative="1" as="geometry" />
          </mxCell>
        </object>
        <object label="Communicate false Guideline through Compromised Control System" Knowledge="3" Resources="3" Location="0" id="-4xTDCNd8uaIH-OiAP7f-80">
          <ag_attributes label="NaN" Knowledge="5" Resources="5" Location="1" />
          <ag_computed_attributes fillColor="#40ff00" fontColor="#000000" value="1" />
          <ag_computed_attributes_function_reference ag_computed_attributes_function_reference="dbg60ff69g9a" />
          <ag_aggregation_function_reference ag_aggregation_function_reference="73f575i0ghij5" />
          <mxCell style="whiteSpace=wrap;fillColor=#d7e3bf;shape=attackgraphs.node;verticalAlign=top;spacingRight=20;" parent="1" vertex="1">
            <mxGeometry x="640" y="680" width="165" height="75" as="geometry" />
          </mxCell>
        </object>
        <object label="2" id="-4xTDCNd8uaIH-OiAP7f-81">
          <ag_attributes />
          <ag_computed_attributes />
          <mxCell style="edgeStyle=none;rounded=0;orthogonalLoop=1;jettySize=auto;strokeWidth=2;fontSize=15;strokeColor=#000000;" parent="1" source="-4xTDCNd8uaIH-OiAP7f-95" target="-4xTDCNd8uaIH-OiAP7f-61" edge="1">
            <mxGeometry relative="1" as="geometry" />
          </mxCell>
        </object>
        <object label="2" id="-4xTDCNd8uaIH-OiAP7f-83">
          <ag_attributes />
          <ag_computed_attributes />
          <mxCell style="edgeStyle=none;rounded=0;orthogonalLoop=1;jettySize=auto;strokeWidth=2;fontSize=15;strokeColor=#000000;" parent="1" source="-4xTDCNd8uaIH-OiAP7f-95" target="-4xTDCNd8uaIH-OiAP7f-88" edge="1">
            <mxGeometry relative="1" as="geometry" />
          </mxCell>
        </object>
        <object label="2" id="-4xTDCNd8uaIH-OiAP7f-93">
          <ag_attributes />
          <ag_computed_attributes />
          <mxCell style="rounded=0;orthogonalLoop=1;jettySize=auto;html=1;strokeWidth=2;fontSize=15;strokeColor=#000000;" parent="1" source="-4xTDCNd8uaIH-OiAP7f-95" target="-4xTDCNd8uaIH-OiAP7f-76" edge="1">
            <mxGeometry relative="1" as="geometry" />
          </mxCell>
        </object>
        <object label="3" id="-4xTDCNd8uaIH-OiAP7f-85">
          <ag_attributes />
          <ag_computed_attributes />
          <mxCell style="edgeStyle=none;rounded=0;orthogonalLoop=1;jettySize=auto;strokeWidth=2;fontSize=15;strokeColor=#000000;" parent="1" source="-4xTDCNd8uaIH-OiAP7f-86" target="-4xTDCNd8uaIH-OiAP7f-56" edge="1">
            <mxGeometry relative="1" as="geometry">
              <mxPoint x="1561" y="270" as="targetPoint" />
            </mxGeometry>
          </mxCell>
        </object>
        <object label="Violation of Privacy" id="-4xTDCNd8uaIH-OiAP7f-86">
          <ag_attributes _risk="L" _marking="-4xTDCNd8uaIH-OiAP7f-56" _weight="-4xTDCNd8uaIH-OiAP7f-56:3" />
          <ag_computed_attributes fillColor="#40ff00" fontColor="#000000" value="L" />
          <ag_aggregation_function_reference ag_aggregation_function_reference="egf49jfgj408" />
          <ag_computed_attributes_function_reference ag_computed_attributes_function_reference="6c831697g9i0a" />
          <mxCell style="shape=attackgraphs.node;rounded=1" parent="1" vertex="1">
            <mxGeometry x="1450" y="160" width="222" height="48" as="geometry" />
          </mxCell>
        </object>
        <object id="-4xTDCNd8uaIH-OiAP7f-87">
          <ag_attributes />
          <ag_computed_attributes />
          <mxCell style="edgeStyle=none;rounded=0;orthogonalLoop=1;jettySize=auto;strokeWidth=2;verticalAlign=top;spacingRight=20;strokeColor=#000000;" parent="1" source="-4xTDCNd8uaIH-OiAP7f-88" target="-4xTDCNd8uaIH-OiAP7f-52" edge="1">
            <mxGeometry relative="1" as="geometry" />
          </mxCell>
        </object>
        <object label="Provoke inconvenient routes for travelers" Knowledge="" Resources="" Location="" id="-4xTDCNd8uaIH-OiAP7f-88">
          <ag_attributes label="NaN" Knowledge="4" Resources="4" Location="1" _marking="-4xTDCNd8uaIH-OiAP7f-52" />
          <ag_computed_attributes fillColor="#40ff00" fontColor="#000000" value="1" />
          <ag_aggregation_function_reference ag_aggregation_function_reference="6b1d22791hih8" />
          <ag_computed_attributes_function_reference ag_computed_attributes_function_reference="dbg60ff69g9a" />
          <mxCell style="whiteSpace=wrap;shape=attackgraphs.node;verticalAlign=top;spacingRight=20;" parent="1" vertex="1">
            <mxGeometry x="240" y="290" width="150" height="60" as="geometry" />
          </mxCell>
        </object>
        <object label="Obstruction of punishment" id="-4xTDCNd8uaIH-OiAP7f-89">
          <ag_attributes _risk="L" _marking="-4xTDCNd8uaIH-OiAP7f-61" _weight="-4xTDCNd8uaIH-OiAP7f-61:2" />
          <ag_computed_attributes fillColor="#40ff00" fontColor="#000000" value="L" />
          <ag_computed_attributes_function_reference ag_computed_attributes_function_reference="6c831697g9i0a" />
          <ag_aggregation_function_reference ag_aggregation_function_reference="egf49jfgj408" />
          <mxCell style="shape=attackgraphs.node;rounded=1;" parent="1" vertex="1">
            <mxGeometry x="944.5" y="160" width="111" height="48" as="geometry" />
          </mxCell>
        </object>
        <object label="2" id="-4xTDCNd8uaIH-OiAP7f-90">
          <ag_attributes />
          <ag_computed_attributes />
          <mxCell style="edgeStyle=none;rounded=0;orthogonalLoop=1;jettySize=auto;strokeWidth=2;fontSize=15;strokeColor=#000000;" parent="1" source="-4xTDCNd8uaIH-OiAP7f-89" target="-4xTDCNd8uaIH-OiAP7f-61" edge="1">
            <mxGeometry relative="1" as="geometry">
              <mxPoint x="706.4285714285716" y="228" as="sourcePoint" />
              <mxPoint x="935" y="304.79999999999995" as="targetPoint" />
            </mxGeometry>
          </mxCell>
        </object>
        <object label="Reputational Damage Operator" id="-4xTDCNd8uaIH-OiAP7f-95">
          <ag_aggregation_function_reference ag_aggregation_function_reference="egf49jfgj408" />
          <ag_computed_attributes_function_reference ag_computed_attributes_function_reference="6c831697g9i0a" />
          <ag_attributes _risk="L" _marking="-4xTDCNd8uaIH-OiAP7f-61;-4xTDCNd8uaIH-OiAP7f-88;-4xTDCNd8uaIH-OiAP7f-76" _weight="-4xTDCNd8uaIH-OiAP7f-61:2;-4xTDCNd8uaIH-OiAP7f-88:2;-4xTDCNd8uaIH-OiAP7f-76:2" />
          <ag_computed_attributes fillColor="#40ff00" fontColor="#000000" value="L" />
          <mxCell style="shape=attackgraphs.node;rounded=1" parent="1" vertex="1">
            <mxGeometry x="510" y="160" width="230" height="51.5" as="geometry" />
          </mxCell>
        </object>
        <object label="Values from Intermodal Travel Chain" id="hlJk635r3doJFyI0tFxE-1">
          <ag_attributes />
          <ag_computed_attributes />
          <mxCell style="text;align=center;verticalAlign=top;resizable=0;points=[];autosize=1;strokeColor=none;fillColor=none;" parent="1" vertex="1">
            <mxGeometry x="790" y="760" width="200" height="40" as="geometry" />
          </mxCell>
        </object>
        <object label="Access Restriction&#10;Access Control" Resources="1" Knowledge="1" Location="0" id="GgrNti0cYKfVZOgplMKi-2">
          <ag_attributes />
          <ag_computed_attributes />
          <mxCell style="shape=attackgraphs.node;fillColor=#DAE8FC;verticalAlign=top;" parent="1" vertex="1">
            <mxGeometry x="198.5" y="920" width="150" height="60" as="geometry" />
          </mxCell>
        </object>
        <object label="" id="GgrNti0cYKfVZOgplMKi-3">
          <ag_attributes />
          <ag_computed_attributes />
          <mxCell style="endArrow=none;dashed=1;html=1;rounded=0;strokeWidth=1;verticalAlign=top;strokeColor=#000000;" parent="1" edge="1">
            <mxGeometry width="50" height="50" relative="1" as="geometry">
              <mxPoint x="30" y="990" as="sourcePoint" />
              <mxPoint x="1900" y="990" as="targetPoint" />
            </mxGeometry>
          </mxCell>
        </object>
        <object label="Integrity Protection of Environment Monitoring&#10;Plausibility Check&#10;Redundancy" Resources="2" Knowledge="2" Location="0" id="GgrNti0cYKfVZOgplMKi-4">
          <ag_attributes />
          <ag_computed_attributes />
          <mxCell style="shape=attackgraphs.node;fillColor=#DAE8FC;verticalAlign=top;" parent="1" vertex="1">
            <mxGeometry x="90" y="1040" width="210" height="75" as="geometry" />
          </mxCell>
        </object>
        <object label="Encryption" Resources="2" Knowledge="2" Location="0" id="GgrNti0cYKfVZOgplMKi-8">
          <ag_attributes />
          <ag_computed_attributes />
          <mxCell style="shape=attackgraphs.node;fillColor=#DAE8FC;verticalAlign=top;" parent="1" vertex="1">
            <mxGeometry x="1394" y="920" width="150" height="60" as="geometry" />
          </mxCell>
        </object>
        <object label="Digital Signature" Resources="2" Knowledge="2" Location="1" id="GgrNti0cYKfVZOgplMKi-9">
          <ag_attributes />
          <ag_computed_attributes />
          <mxCell style="shape=attackgraphs.node;fillColor=#DAE8FC;verticalAlign=top;" parent="1" vertex="1">
            <mxGeometry x="970" y="920" width="150" height="60" as="geometry" />
          </mxCell>
        </object>
        <object label="Secure Storage" Resources="2" Knowledge="2" Location="1" id="GgrNti0cYKfVZOgplMKi-15">
          <ag_attributes />
          <ag_computed_attributes />
          <mxCell style="shape=attackgraphs.node;fillColor=#DAE8FC;verticalAlign=top;align=left;spacingLeft=2;" parent="1" vertex="1">
            <mxGeometry x="1672" y="920" width="124" height="62" as="geometry" />
          </mxCell>
        </object>
        <object label="Resilience" Resources="2" Knowledge="3" Location="0" id="GgrNti0cYKfVZOgplMKi-18">
          <ag_attributes />
          <ag_computed_attributes />
          <mxCell style="shape=attackgraphs.node;fillColor=#DAE8FC;verticalAlign=top;" parent="1" vertex="1">
            <mxGeometry x="551.5" y="1040" width="150" height="75" as="geometry" />
          </mxCell>
        </object>
        <object label="Access Control" Resources="1" Knowledge="1" Location="0" id="GgrNti0cYKfVZOgplMKi-20">
          <ag_attributes />
          <ag_computed_attributes />
          <mxCell style="shape=attackgraphs.node;fillColor=#DAE8FC;verticalAlign=top;" parent="1" vertex="1">
            <mxGeometry x="800" y="920" width="150" height="60" as="geometry" />
          </mxCell>
        </object>
        <object label="Awareness Training" Resources="1" Knowledge="1" Location="0" id="GgrNti0cYKfVZOgplMKi-22">
          <ag_attributes />
          <ag_computed_attributes />
          <mxCell style="shape=attackgraphs.node;fillColor=#DAE8FC;verticalAlign=top;" parent="1" vertex="1">
            <mxGeometry x="435" y="920" width="150" height="60" as="geometry" />
          </mxCell>
        </object>
        <object label="Multi-factor authentication&#10;Code Signing" Resources="1" Knowledge="2" Location="0" id="GgrNti0cYKfVZOgplMKi-29">
          <ag_attributes />
          <ag_computed_attributes />
          <mxCell style="shape=attackgraphs.node;fillColor=#DAE8FC;verticalAlign=top;" parent="1" vertex="1">
            <mxGeometry x="1165" y="920" width="160" height="60" as="geometry" />
          </mxCell>
        </object>
        <object label="Redundancy&#10;Plausibility Check" Resources="3" Knowledge="2" Location="0" id="GgrNti0cYKfVZOgplMKi-34">
          <ag_attributes />
          <ag_computed_attributes />
          <mxCell style="shape=attackgraphs.node;fillColor=#DAE8FC;verticalAlign=top;" parent="1" vertex="1">
            <mxGeometry x="820" y="1040" width="214" height="85" as="geometry" />
          </mxCell>
        </object>
        <object id="w9PTzOwBD10Lf9njyfX9-1">
          <ag_attributes />
          <ag_computed_attributes />
          <mxCell style="edgeStyle=none;rounded=0;orthogonalLoop=1;jettySize=auto;html=1;strokeWidth=2;startArrow=diamondThin;startFill=1;endArrow=none;endFill=0;strokeColor=#000000;" parent="1" source="-4xTDCNd8uaIH-OiAP7f-80" target="GgrNti0cYKfVZOgplMKi-9" edge="1">
            <mxGeometry relative="1" as="geometry" />
          </mxCell>
        </object>
        <object id="w9PTzOwBD10Lf9njyfX9-2">
          <ag_attributes />
          <ag_computed_attributes />
          <mxCell style="edgeStyle=none;rounded=0;orthogonalLoop=1;jettySize=auto;html=1;strokeWidth=2;startArrow=diamondThin;startFill=1;endArrow=none;endFill=0;strokeColor=#000000;" parent="1" source="-4xTDCNd8uaIH-OiAP7f-80" target="GgrNti0cYKfVZOgplMKi-8" edge="1">
            <mxGeometry relative="1" as="geometry" />
          </mxCell>
        </object>
        <object label="Malware Protection" Resources="4" Knowledge="2" Location="0" id="w9PTzOwBD10Lf9njyfX9-3">
          <ag_attributes />
          <ag_computed_attributes />
          <mxCell style="shape=attackgraphs.node;fillColor=#DAE8FC;verticalAlign=top;" parent="1" vertex="1">
            <mxGeometry x="630" y="920" width="150" height="60" as="geometry" />
          </mxCell>
        </object>
        <object id="w9PTzOwBD10Lf9njyfX9-4">
          <ag_attributes />
          <ag_computed_attributes />
          <mxCell style="edgeStyle=none;rounded=0;orthogonalLoop=1;jettySize=auto;html=1;strokeWidth=2;startArrow=diamondThin;startFill=1;endArrow=none;endFill=0;strokeColor=#000000;" parent="1" source="-4xTDCNd8uaIH-OiAP7f-80" target="w9PTzOwBD10Lf9njyfX9-3" edge="1">
            <mxGeometry relative="1" as="geometry" />
          </mxCell>
        </object>
        <object id="w9PTzOwBD10Lf9njyfX9-5">
          <ag_attributes />
          <ag_computed_attributes />
          <mxCell style="edgeStyle=none;rounded=0;orthogonalLoop=1;jettySize=auto;html=1;strokeWidth=2;startArrow=diamondThin;startFill=1;endArrow=none;endFill=0;strokeColor=#000000;" parent="1" source="-4xTDCNd8uaIH-OiAP7f-79" target="w9PTzOwBD10Lf9njyfX9-3" edge="1">
            <mxGeometry relative="1" as="geometry" />
          </mxCell>
        </object>
      </root>
    </mxGraphModel>
  </diagram>
</mxfile>